<?xml version="1.0" standalone="no"?><!DOCTYPE svg PUBLIC "-//W3C//DTD SVG 1.1//EN" "http://www.w3.org/Graphics/SVG/1.1/DTD/svg11.dtd"><svg class="icon" width="64px" height="64.00px" viewBox="0 0 1024 1024" version="1.1" xmlns="http://www.w3.org/2000/svg"><path d="M484.815579 724.919286c6.208106 0.224992 12.366214 0.379153 18.499322 0.479149a241.58282 241.58282 0 0 1-21.770036-1.799934c1.670772 0.899967 2.799897 1.37495 3.270714 1.320785zM552.846421 724.919286c0.854135 0.091663 3.845692-1.524944 8.328861-4.249844a242.074468 242.074468 0 0 1-44.627532 4.849822 923.174526 923.174526 0 0 0 36.298671-0.599978z" fill="#D6E079" /><path d="M512.335404 0C229.591592 0 0.470816 229.241605 0.470816 511.981251c0 174.147789 86.942649 327.975489 219.779452 420.463769 25.836554-89.905041 90.900838-157.723391 179.514259-188.918082-22.811665-34.998718-31.069696-54.877157-30.13223-64.705964A242.386957 242.386957 0 0 1 317.905025 627.018705c-250.76165-28.932274-36.073679-533.134643 194.667871-411.834919 1.845766-0.970798 3.691531-1.904097 5.537297-2.791564 50.481485-24.411606 99.758847-19.38679 143.340584 3.587369 18.603485-21.378384 41.969296-37.419463 47.764917-21.582543l17.361865 47.239936 16.420232 44.994186c0.637477 0.81247 1.274953 1.629107 1.904097 2.445744l48.398227 9.01217 49.485688 9.212162c25.38657 4.670662-16.307736 62.789367-44.065053 78.497126 41.698473 110.258462 26.728188 229.887415-92.209123 241.57032a242.278627 242.278627 0 0 1-42.590107 44.577534c9.328825 4.749826 4.653996 25.336572-28.457291 75.463903 83.313616 32.694636 144.382213 98.596389 169.202137 184.914062 132.770138-92.504946 219.646123-246.274314 219.646123-420.35544C1024.316655 229.241605 795.195879 0 512.335404 0z" fill="#D6E079" /><path d="M481.544865 723.602668c7.166404 0.916633 14.420305 1.524944 21.770036 1.799934 4.420671 0.074997 8.824677 0.108329 13.228683 0.120829a242.074468 242.074468 0 0 0 44.627532-4.849823c23.069988-14.003654 85.851023-57.314568 102.750404-48.714883a242.416122 242.416122 0 0 0 42.590107-44.577534 197.696927 197.696927 0 0 1-17.024377 0.937466c34.844557-50.548149 52.560575-112.787536 42.04846-194.163723l-216.600401 1.062461h-2.599905v-0.012499l-215.775431-1.054128c-10.512115 81.376187 7.203903 143.615574 42.044294 194.163722a200.700983 200.700983 0 0 1-20.699242-1.295785 242.47862 242.47862 0 0 0 51.727272 51.802269c2.883228-30.29889 92.875765 34.607066 111.912568 44.781694z" fill="#FCE9EA" /><path d="M635.468395 747.422629l-0.654143 0.999963-115.979086-0.112496-115.862423 0.112496c-1.116626-1.679105-2.154088-3.279047-3.20405-4.895654-88.613422 31.190524-153.677705 99.013041-179.514259 188.918082 82.8303 57.672888 183.49328 91.517482 292.085137 91.517481 108.708519 0 209.45483-33.886259 292.335128-91.625811-24.824091-86.317672-85.892688-152.223592-169.206304-184.914061z" fill="#F4B3B3" /><path d="M518.831 748.310096l115.979086 0.112496c0.229158-0.341654 0.433317-0.658309 0.654143-0.999963 33.111287-50.127331 37.786116-70.718244 28.457291-75.463904-16.899381-8.595519-79.680415 34.711229-102.750404 48.714883-4.483169 2.720734-7.474726 4.341508-8.328862 4.249845a947.973618 947.973618 0 0 1-49.527353 0.483315 960.506492 960.506492 0 0 1-18.499322-0.479149c-0.470816 0.054165-1.604108-0.424984-3.270714-1.316618-19.036803-10.170461-109.029341-75.080584-111.912568-44.781694-0.937466 9.828807 7.324732 29.707245 30.13223 64.705964 1.049962 1.616607 2.087424 3.212382 3.204049 4.895654l115.862424-0.120829z" fill="#FEFEFE" /><path d="M661.192453 216.27958l0.258324-0.295823c-43.581737-22.978325-92.859099-28.003141-143.340584-3.587369 50.189829-24.253278 99.425526-19.136799 143.08226 3.883192zM744.685229 289.043582l0.216659 0.041665a350.570495 350.570495 0 0 0-1.904097-2.445744l0.170827 0.474983c0.508315 0.637477 1.012463 1.283286 1.516611 1.929096zM296.559973 434.150768l215.775431 1.049961V215.067124l0.237492 0.116662c-230.74155-121.295558-445.429521 382.902644-194.667871 411.834919 6.583092 0.762472 13.466174 1.208289 20.699242 1.295785-34.840391-50.548149-52.556409-112.791703-42.044294-194.163722z" fill="#FBCE77" /><path d="M512.335404 435.200729v0.0125h2.599905l216.600401-1.062461c10.512115 81.376187-7.203903 143.615574-42.04846 194.163722a197.696927 197.696927 0 0 0 17.024377-0.937465c118.937311-11.687072 133.907596-131.311858 92.209123-241.57032-9.437154 5.341471-17.270201 5.803954-20.29509-2.437411l-17.245202-47.239937-17.366031-47.239936-49.485687-9.212163-49.364859-9.212163c-17.47436-3.204049-3.329045-31.594676 16.228572-54.177182-43.660901-23.01999-92.892432-28.13647-143.086427-3.883191-1.845766 0.887467-3.691531 1.820767-5.537297 2.791564l-0.237491-0.116662v220.121105zM743.168618 287.114486l0.645809 1.770768 0.870802 0.162494a183.076629 183.076629 0 0 0-1.516611-1.933262z" fill="#F7B970" /><path d="M743.814427 288.881088l17.366031 47.239936 17.245202 47.239937c3.029056 8.241365 10.857936 7.783048 20.29509 2.437411 27.757317-15.711925 69.451623-73.826463 44.065053-78.497126l-49.485688-9.212162-48.398227-9.01217-0.216659-0.041665-0.870802-0.154161zM644.968047 270.456762l49.364859 9.212163 49.485688 9.212163-0.64581-1.770769-0.170827-0.474983-16.420232-44.994185-17.361864-47.239937c-5.795621-15.83692-29.161432 0.204159-47.764918 21.582543l-0.258323 0.295823c-19.557617 22.586673-33.702932 50.973133-16.228573 54.177182z" fill="#F4B3B3" /></svg>