<?xml version="1.0" standalone="no"?><!DOCTYPE svg PUBLIC "-//W3C//DTD SVG 1.1//EN" "http://www.w3.org/Graphics/SVG/1.1/DTD/svg11.dtd"><svg class="icon" width="64px" height="64.00px" viewBox="0 0 1024 1024" version="1.1" xmlns="http://www.w3.org/2000/svg"><path d="M511.843852 0.354044c-282.65224 0-511.822978 229.170738-511.822978 511.822978 0 174.068962 86.936598 327.828282 219.732335 420.292135 25.986845-90.297936 91.593321-158.27859 180.804133-189.251211a328.636336 328.636336 0 0 1 9.917403-3.253041c0.982993-0.304062 1.957656-0.624784 2.94898-0.92468a329.094511 329.094511 0 0 1 26.44502-6.731006c1.207916-0.254079 2.428327-0.479001 3.640408-0.724749a329.919226 329.919226 0 0 1 14.37836-2.553284 359.529818 359.529818 0 0 1 9.917403-1.391185c1.374525-0.170774 2.736554-0.362375 4.115244-0.520653a358.138632 358.138632 0 0 1 14.065968-1.357864h25.857724c-79.801566 0-150.506278-38.811576-194.361944-98.56591-250.879896-28.769216-36.11251-533.003152 194.47857-411.724265 98.48677-51.761264 193.058228 9.721638 250.434217 99.723842 78.847729 122.507629 88.790124 297.959446-56.426318 312.329476-43.872326 59.566898-114.468743 98.232691-194.124525 98.232692h25.857723c4.723366 0.354044 9.392585 0.82055 14.032647 1.353698 1.437003 0.162444 2.857345 0.362375 4.277687 0.541479a357.505518 357.505518 0 0 1 14.399186 2.124266 353.336126 353.336126 0 0 1 9.39675 1.732734c1.407846 0.27907 2.824023 0.545645 4.223539 0.841375 4.252696 0.899689 8.463739 1.857691 12.624801 2.911493l0.770566 0.191601c4.211044 1.074628 8.363774 2.245057 12.483183 3.473798 1.449499 0.433184 2.878171 0.899689 4.319339 1.349534 2.774041 0.874697 5.53142 1.770221 8.259644 2.707397 89.594012 30.855995 155.475393 98.936615 181.487229 189.442811 132.770746-92.468018 219.686518-246.210677 219.686518-420.258813C1023.662664 229.520617 794.496092 0.354044 511.843852 0.354044z" fill="#F8F7F8" /><path d="M705.968377 627.528793c-5.493933 0.541479-11.196128 0.874697-17.139905 0.945506 34.825455-50.532523 52.535996-112.752669 42.031296-194.1037l-216.537607 1.062133h-2.594936v-0.012496l-215.708727-1.049637c-10.508865 81.346865 7.201676 143.571177 42.031296 194.1037a202.030125 202.030125 0 0 1-20.567886-1.278725c43.8515 59.754333 114.560377 98.565909 194.361944 98.56591 79.655783 0 150.2522-38.665793 194.124525-98.232691z" fill="#FCE9EA" /><path d="M622.488917 742.993024c0.945506 0.324888 1.878517 0.662271 2.815692 0.995489a119.625292 119.625292 0 0 1-16.252712 30.768525c13.253749 30.277028 8.55954 125.806488-14.086794 109.803689l-41.681417-29.277374-41.560626-29.164913-41.560626 29.164913-41.677252 29.277374c-22.696317 16.040286-27.36137-79.959845-13.999324-110.007785a119.571144 119.571144 0 0 1-16.106929-30.564429l2.174248-0.770567c-89.210812 30.972621-154.817287 98.953275-180.804133 189.251211 82.838016 57.68005 183.507364 91.530843 292.090642 91.530843 108.604104 0 209.290114-33.863288 292.13646-91.559999-26.011837-90.510362-91.893217-158.590982-181.487229-189.446977zM596.656185 735.26653l0.770566 0.1916a41.639765 41.639765 0 0 1-0.770566-0.1916z" fill="#D5EAD8" /><path d="M511.843852 824.106636c-1.032976 0-2.053456-0.054148-3.082268-0.079139l2.961476 2.086778 2.953145-2.082613c-0.945506 0.029157-1.882682 0.074974-2.832353 0.074974zM609.909934 738.931929c1.449499 0.433184 2.878171 0.899689 4.319339 1.349533-1.441168-0.449844-2.874006-0.91635-4.319339-1.349533zM579.807845 731.513661c1.407846 0.27907 2.824023 0.545645 4.223539 0.841376-1.399516-0.295731-2.815693-0.562306-4.223539-0.841376zM467.800751 727.640001c1.374525-0.170774 2.736554-0.362375 4.115244-0.520653-1.374525 0.158279-2.740719 0.349879-4.115244 0.520653zM410.474745 739.964905c0.982993-0.304062 1.957656-0.624784 2.94898-0.92468-0.991324 0.299896-1.965987 0.620619-2.94898 0.92468zM439.868745 732.309219c1.207916-0.254079 2.428327-0.479001 3.640408-0.724749-1.212081 0.245748-2.436657 0.474836-3.640408 0.724749zM565.679398 729.01036zM551.734222 727.115182c1.437003 0.162444 2.857345 0.362375 4.277687 0.54148-1.424507-0.179105-2.844849-0.379036-4.277687-0.54148zM453.451547 729.75177z" fill="#D5EAD8" /><path d="M414.490023 774.552942c3.457138-7.780642 8.122191-11.15031 13.999325-6.99758l41.677252 29.281539 38.59915 27.190596c1.028811 0.024991 2.049291 0.079139 3.082267 0.079139 0.953837 0 1.891013-0.049983 2.836519-0.074974l38.60748-27.194761 41.681417-29.281539c5.927117-4.186052 10.617161-0.720584 14.086795 7.201676a119.433692 119.433692 0 0 0 16.252712-30.768525c-0.937176-0.333218-1.870186-0.670601-2.815693-0.995489a324.550249 324.550249 0 0 0-8.259643-2.707397c-1.441168-0.449844-2.869841-0.920515-4.31934-1.349533a323.45896 323.45896 0 0 0-12.483182-3.473799l-0.770567-0.1916a329.502703 329.502703 0 0 0-12.6248-2.911493c-1.399516-0.295731-2.815693-0.562306-4.223539-0.841376a353.336126 353.336126 0 0 0-14.128447-2.503301 343.781098 343.781098 0 0 0-9.66749-1.353698c-1.424507-0.179105-2.844849-0.379036-4.277687-0.541479a355.681149 355.681149 0 0 0-14.032647-1.353699h-51.715446c-4.731697 0.354044-9.413411 0.824715-14.065969 1.357864-1.37869 0.158279-2.744884 0.349879-4.115243 0.520653a359.529818 359.529818 0 0 0-14.353369 2.11177c-3.340511 0.562306-6.651866 1.178759-9.942395 1.832699-1.212081 0.245748-2.432492 0.470671-3.640407 0.724749a329.094511 329.094511 0 0 0-26.44502 6.731006c-0.991324 0.295731-1.965987 0.616453-2.948981 0.92468a328.636336 328.636336 0 0 0-12.091651 4.023608 119.200439 119.200439 0 0 0 16.098599 30.560264z" fill="#FEFEFE" /><path d="M594.965103 767.555362l-41.681417 29.281539-38.607481 27.194761-2.953145 2.082613 41.560626 29.164913 41.681417 29.277374c22.646334 16.002799 27.336379-79.530826 14.086794-109.803689-3.473799-7.918095-8.163843-11.383563-14.086794-7.197511zM470.162434 796.841067l-41.677252-29.28154c-5.877134-4.15273-10.542187-0.783062-13.999324 6.99758-13.362045 30.047941-8.696992 126.048071 13.999324 110.007786l41.677252-29.277374 41.560626-29.164913-2.961476-2.086779-38.59915-27.19476z" fill="#C3E1C5" /><path d="M296.014333 434.370599l215.708727 1.049637v0.012496h2.594936l216.537607-1.062133c10.5047 81.346865-7.201676 143.571177-42.031296 194.1037a198.564657 198.564657 0 0 0 17.139905-0.945506c145.216441-14.37003 135.274047-189.821847 56.426317-312.329476-57.375989-90.002205-151.947447-151.489272-250.434216-99.723843-230.59108-121.283052-445.358466 382.950884-194.47857 411.724266 6.539405 0.749741 13.382871 1.191255 20.567886 1.278724-34.82962-50.536688-52.540161-112.761-42.031296-194.107865z" fill="#B6B6B7" /></svg>