<?xml version="1.0" standalone="no"?><!DOCTYPE svg PUBLIC "-//W3C//DTD SVG 1.1//EN" "http://www.w3.org/Graphics/SVG/1.1/DTD/svg11.dtd"><svg t="1522895449868" class="icon" style="" viewBox="0 0 1024 1024" version="1.1" xmlns="http://www.w3.org/2000/svg" p-id="2305" xmlns:xlink="http://www.w3.org/1999/xlink" width="64" height="64"><defs><style type="text/css"></style></defs><path d="M614.4 510.293333c10.24 0 17.066667-6.826667 17.066667-17.066667l0-30.72c0-10.24-6.826667-17.066667-17.066667-17.066667s-17.066667 6.826667-17.066667 17.066667l0 30.72C597.333333 501.76 604.16 510.293333 614.4 510.293333z" p-id="2306" fill="#fee033"></path><path d="M409.6 510.293333c10.24 0 17.066667-6.826667 17.066667-17.066667l0-30.72c0-10.24-6.826667-17.066667-17.066667-17.066667s-17.066667 6.826667-17.066667 17.066667l0 30.72C392.533333 501.76 399.36 510.293333 409.6 510.293333z" p-id="2307" fill="#fee033"></path><path d="M733.866667 452.266667l0-51.2c0-29.013333-22.186667-51.2-51.2-51.2l-100.693333 0 61.44-75.093333c6.826667-6.826667 5.12-18.773333-1.706667-23.893333-6.826667-6.826667-18.773333-5.12-23.893333 1.706667l-80.213333 95.573333-52.906667 0-80.213333-95.573333c-6.826667-6.826667-17.066667-8.533333-23.893333-1.706667s-8.533333 17.066667-1.706667 23.893333l61.44 75.093333L341.333333 349.866667c-29.013333 0-51.2 22.186667-51.2 51.2l0 51.2c-29.013333 0-51.2 22.186667-51.2 51.2l0 68.266667c0 29.013333 22.186667 51.2 51.2 51.2l0 34.133333c0 29.013333 22.186667 51.2 51.2 51.2l341.333333 0c29.013333 0 51.2-22.186667 51.2-51.2l0-34.133333c29.013333 0 51.2-22.186667 51.2-51.2l0-68.266667C785.066667 474.453333 762.88 452.266667 733.866667 452.266667zM273.066667 571.733333l0-68.266667c0-10.24 6.826667-17.066667 17.066667-17.066667l0 102.4C279.893333 588.8 273.066667 581.973333 273.066667 571.733333zM699.733333 657.066667c0 10.24-6.826667 17.066667-17.066667 17.066667L341.333333 674.133333c-10.24 0-17.066667-6.826667-17.066667-17.066667l0-256c0-10.24 6.826667-17.066667 17.066667-17.066667l341.333333 0c10.24 0 17.066667 6.826667 17.066667 17.066667L699.733333 657.066667zM750.933333 571.733333c0 10.24-6.826667 17.066667-17.066667 17.066667l0-102.4c10.24 0 17.066667 6.826667 17.066667 17.066667L750.933333 571.733333z" p-id="2308" fill="#fee033"></path><path d="M631.466667 571.733333 392.533333 571.733333c-10.24 0-17.066667 6.826667-17.066667 17.066667s6.826667 17.066667 17.066667 17.066667l238.933333 0c10.24 0 17.066667-6.826667 17.066667-17.066667S641.706667 571.733333 631.466667 571.733333z" p-id="2309" fill="#fee033"></path><path d="M512 76.8c-235.52 0-426.666667 191.146667-426.666667 426.666667s191.146667 426.666667 426.666667 426.666667 426.666667-191.146667 426.666667-426.666667S747.52 76.8 512 76.8zM512 896c-216.746667 0-392.533333-175.786667-392.533333-392.533333 0-216.746667 175.786667-392.533333 392.533333-392.533333 216.746667 0 392.533333 175.786667 392.533333 392.533333C904.533333 720.213333 728.746667 896 512 896z" p-id="2310" fill="#fee033"></path></svg>